<svg width="60" height="60" viewBox="0 0 60 60" fill="none" xmlns="http://www.w3.org/2000/svg">
<g filter="url(#filter0_d_2623_571)">
<path d="M3.21429 16.0715C3.21429 8.9707 8.97063 3.21436 16.0714 3.21436H43.9286C51.0294 3.21436 56.7857 8.9707 56.7857 16.0715V43.9286C56.7857 51.0294 51.0294 56.7858 43.9286 56.7858H16.0714C8.97064 56.7858 3.21429 51.0294 3.21429 43.9286V16.0715Z" fill="white"/>
</g>
<path fill-rule="evenodd" clip-rule="evenodd" d="M11.3767 26.7712C11.7003 27.3025 11.5319 27.9957 11.0005 28.3193C10.501 28.6235 10.1029 29.069 9.85663 29.5995C9.61033 30.13 9.52686 30.7216 9.61678 31.2995C9.7067 31.8774 9.96597 32.4157 10.3618 32.8463C10.7576 33.2768 11.2723 33.5803 11.8406 33.7184C12.4452 33.8653 12.8162 34.4745 12.6693 35.0791C12.5224 35.6836 11.9132 36.0547 11.3087 35.9078C10.3073 35.6645 9.4006 35.1297 8.70317 34.3711C8.00574 33.6125 7.54893 32.6641 7.3905 31.6459C7.23207 30.6277 7.37914 29.5853 7.81311 28.6507C8.24707 27.716 8.94845 26.9311 9.82854 26.395C10.3599 26.0714 11.053 26.2398 11.3767 26.7712Z" fill="url(#paint0_linear_2623_571)"/>
<path fill-rule="evenodd" clip-rule="evenodd" d="M17.3583 18.0413C17.158 18.0165 16.9546 18.0351 16.7621 18.0959C16.5696 18.1566 16.3924 18.258 16.2425 18.3932C16.0926 18.5285 15.9735 18.6943 15.8933 18.8796C15.8132 19.0649 15.7738 19.2652 15.7778 19.4671C15.7903 20.0891 15.2962 20.6035 14.6741 20.616C14.0521 20.6285 13.5377 20.1343 13.5252 19.5123C13.5147 18.9875 13.6171 18.4666 13.8255 17.9849C14.034 17.5032 14.3435 17.0719 14.7333 16.7203C15.123 16.3687 15.5838 16.1051 16.0843 15.9472C16.5849 15.7893 17.1136 15.7409 17.6345 15.8052C18.252 15.8815 18.6907 16.4439 18.6144 17.0613C18.5382 17.6788 17.9758 18.1175 17.3583 18.0413Z" fill="url(#paint1_linear_2623_571)"/>
<path fill-rule="evenodd" clip-rule="evenodd" d="M14.5166 21.6359C14.0471 21.4412 13.5352 21.3707 13.0305 21.4315C12.5258 21.4922 12.0452 21.682 11.6353 21.9825C11.2253 22.2831 10.8997 22.6843 10.69 23.1473C10.4802 23.6104 10.3934 24.1197 10.4379 24.6261C10.4823 25.1325 10.6566 25.6189 10.9438 26.0383C11.2311 26.4577 11.6216 26.796 12.0776 27.0205C12.5337 27.2451 13.04 27.3482 13.5476 27.32C14.1688 27.2855 14.7003 27.7612 14.7348 28.3824C14.7693 29.0036 14.2936 29.5351 13.6724 29.5696C12.7781 29.6193 11.8862 29.4375 11.0826 29.042C10.279 28.6464 9.59096 28.0503 9.08489 27.3114C8.57881 26.5724 8.27178 25.7154 8.19343 24.8232C8.11509 23.9309 8.26808 23.0336 8.63763 22.2177C9.00718 21.4018 9.58081 20.695 10.3032 20.1654C11.0255 19.6359 11.8722 19.3015 12.7614 19.1945C13.6507 19.0876 14.5525 19.2116 15.3798 19.5548C16.2071 19.8979 16.932 20.4486 17.4845 21.1535C17.8683 21.6432 17.7824 22.3513 17.2927 22.7351C16.8031 23.1189 16.095 23.033 15.7112 22.5433C15.3976 22.1432 14.9862 21.8307 14.5166 21.6359Z" fill="url(#paint2_linear_2623_571)"/>
<path fill-rule="evenodd" clip-rule="evenodd" d="M17.7635 23.3913C17.4802 23.3563 17.1934 23.418 16.9495 23.5664C16.7056 23.7147 16.5189 23.9411 16.4198 24.2088C16.3206 24.4765 16.3147 24.7699 16.4031 25.0413C16.4914 25.3128 16.6688 25.5465 16.9066 25.7045C17.4247 26.0489 17.5655 26.7482 17.2211 27.2663C16.8766 27.7844 16.1774 27.9252 15.6593 27.5808C14.9989 27.1418 14.506 26.4927 14.2606 25.7386C14.0152 24.9846 14.0315 24.1697 14.307 23.4261C14.5825 22.6825 15.101 22.0537 15.7784 21.6415C16.4559 21.2294 17.2527 21.058 18.0397 21.1552C18.6572 21.2315 19.0959 21.7939 19.0197 22.4113C18.9434 23.0288 18.381 23.4676 17.7635 23.3913Z" fill="url(#paint3_linear_2623_571)"/>
<path fill-rule="evenodd" clip-rule="evenodd" d="M22.4393 26.1462C22.7629 26.6775 22.5945 27.3707 22.0631 27.6943C21.7421 27.8898 21.4686 28.1543 21.2624 28.4686C21.0562 28.7829 20.9224 29.1391 20.8709 29.5115C20.8193 29.8838 20.8512 30.263 20.9643 30.6215C21.0774 30.98 21.2688 31.3088 21.5246 31.5842C21.7805 31.8596 22.0943 32.0747 22.4436 32.2138C22.7928 32.3529 23.1686 32.4126 23.5437 32.3886C23.9188 32.3645 24.2839 32.2574 24.6125 32.0748C24.9411 31.8923 25.225 31.6389 25.4436 31.3331C25.8054 30.827 26.5091 30.71 27.0152 31.0719C27.5213 31.4337 27.6383 32.1373 27.2765 32.6434C26.8636 33.2211 26.3273 33.6996 25.7066 34.0444C25.0859 34.3892 24.3963 34.5916 23.6877 34.637C22.9792 34.6824 22.2693 34.5696 21.6097 34.3069C20.9501 34.0441 20.3572 33.6379 19.8739 33.1177C19.3907 32.5975 19.0292 31.9763 18.8156 31.2992C18.602 30.622 18.5417 29.9058 18.6391 29.2025C18.7365 28.4992 18.9891 27.8263 19.3786 27.2326C19.7681 26.639 20.2847 26.1394 20.8912 25.77C21.4225 25.4464 22.1156 25.6148 22.4393 26.1462Z" fill="#12A47F"/>
<path fill-rule="evenodd" clip-rule="evenodd" d="M26.7612 16.8284C27.3834 16.8284 27.8878 17.3327 27.8878 17.9549L27.8878 42.1102C27.8878 42.7323 27.3834 43.2367 26.7612 43.2367C26.1391 43.2367 25.6347 42.7323 25.6347 42.1102L25.6347 17.9549C25.6347 17.3327 26.1391 16.8284 26.7612 16.8284Z" fill="url(#paint4_linear_2623_571)"/>
<path fill-rule="evenodd" clip-rule="evenodd" d="M23.0524 14.6608C22.5426 14.6182 22.0308 14.7154 21.572 14.9418C21.1132 15.1682 20.7248 15.5153 20.4484 15.9458C20.172 16.3763 20.0181 16.874 20.0032 17.3854C19.9883 17.8968 20.113 18.4026 20.3639 18.8484C20.6148 19.2943 20.9824 19.6634 21.4272 19.9161L21.4365 19.9215L30.5658 25.2238C31.1038 25.5363 31.2866 26.2257 30.9741 26.7637C30.6616 27.3017 29.9722 27.4846 29.4342 27.1721L20.3093 21.8723C19.5108 21.4175 18.851 20.7542 18.4003 19.9533C17.9488 19.1507 17.7243 18.2403 17.7511 17.3198C17.7779 16.3993 18.0549 15.5035 18.5524 14.7286C19.0499 13.9537 19.7491 13.3289 20.5749 12.9214C21.4007 12.5139 22.3219 12.339 23.2396 12.4155C24.1573 12.492 25.0368 12.8171 25.7837 13.3557C26.5306 13.8944 27.1167 14.6264 27.479 15.473C27.8592 16.3616 27.8877 17.319 27.8877 18.0306C27.8877 18.6528 27.3834 19.1571 26.7612 19.1571C26.139 19.1571 25.6347 18.6528 25.6347 18.0306C25.6347 17.334 25.5909 16.7878 25.4076 16.3594C25.2063 15.889 24.8807 15.4824 24.4658 15.1831C24.0508 14.8839 23.5622 14.7033 23.0524 14.6608Z" fill="url(#paint5_linear_2623_571)"/>
<path fill-rule="evenodd" clip-rule="evenodd" d="M14.0796 32.8205C14.3685 33.3715 14.156 34.0524 13.6049 34.3413C13.2192 34.5435 12.9003 34.8532 12.6869 35.2328C12.4736 35.6125 12.3748 36.0459 12.4025 36.4805C12.4303 36.9151 12.5835 37.3324 12.8435 37.6818C13.1035 38.0312 13.4591 38.2978 13.8675 38.4492C14.4508 38.6656 14.7483 39.3139 14.5319 39.8972C14.3156 40.4805 13.6673 40.778 13.0839 40.5616C12.2673 40.2587 11.5559 39.7256 11.0359 39.0268C10.5159 38.328 10.2096 37.4935 10.1541 36.6242C10.0985 35.7549 10.2961 34.8882 10.7229 34.1289C11.1497 33.3696 11.7874 32.7502 12.5588 32.3458C13.1099 32.0569 13.7907 32.2695 14.0796 32.8205Z" fill="url(#paint6_linear_2623_571)"/>
<path fill-rule="evenodd" clip-rule="evenodd" d="M16.6153 38.3942C16.9389 38.9256 16.7705 39.6187 16.2392 39.9423C16.0654 40.0481 15.9142 40.1871 15.7942 40.3514C15.6742 40.5156 15.5877 40.7019 15.5397 40.8996C15.4917 41.0972 15.4831 41.3024 15.5143 41.5034C15.5456 41.7044 15.6162 41.8973 15.722 42.071C15.8278 42.2447 15.9668 42.3959 16.131 42.5159C16.2953 42.6359 16.4815 42.7224 16.6792 42.7704C16.8769 42.8185 17.082 42.8271 17.283 42.7958C17.484 42.7645 17.6769 42.694 17.8506 42.5882C18.382 42.2645 19.0751 42.4329 19.3988 42.9643C19.7224 43.4957 19.554 44.1888 19.0226 44.5124C18.5962 44.7721 18.1228 44.9453 17.6294 45.0221C17.1361 45.0989 16.6324 45.0777 16.1473 44.9598C15.6621 44.8419 15.2049 44.6296 14.8017 44.3351C14.3986 44.0405 14.0574 43.6694 13.7977 43.243C13.538 42.8166 13.3648 42.3432 13.2881 41.8498C13.2113 41.3564 13.2325 40.8528 13.3503 40.3676C13.4682 39.8824 13.6805 39.4252 13.9751 39.0221C14.2697 38.619 14.6408 38.2778 15.0672 38.0181C15.5985 37.6944 16.2917 37.8629 16.6153 38.3942Z" fill="url(#paint7_linear_2623_571)"/>
<path fill-rule="evenodd" clip-rule="evenodd" d="M23.0524 45.3392C22.5426 45.3818 22.0308 45.2846 21.572 45.0582C21.1132 44.8318 20.7248 44.4847 20.4484 44.0542C20.172 43.6237 20.0181 43.126 20.0032 42.6146C19.9883 42.1032 20.113 41.5974 20.3639 41.1516C20.6148 40.7057 20.9824 40.3366 21.4272 40.0839L21.4365 40.0785L30.5658 34.7762C31.1038 34.4637 31.2866 33.7743 30.9741 33.2363C30.6616 32.6983 29.9722 32.5154 29.4342 32.8279L20.3093 38.1277C19.5108 38.5825 18.851 39.2458 18.4003 40.0467C17.9488 40.8493 17.7243 41.7597 17.7511 42.6802C17.7779 43.6007 18.0549 44.4965 18.5524 45.2714C19.0499 46.0463 19.7491 46.6711 20.5749 47.0786C21.4007 47.4861 22.3219 47.661 23.2396 47.5845C24.1573 47.508 25.0368 47.1829 25.7837 46.6443C26.5306 46.1056 27.1167 45.3736 27.479 44.527C27.8592 43.6384 27.8877 42.681 27.8877 41.9694C27.8877 41.3472 27.3834 40.8429 26.7612 40.8429C26.139 40.8429 25.6347 41.3472 25.6347 41.9694C25.6347 42.666 25.5909 43.2122 25.4076 43.6406C25.2063 44.111 24.8807 44.5176 24.4658 44.8169C24.0508 45.1161 23.5622 45.2967 23.0524 45.3392Z" fill="url(#paint8_linear_2623_571)"/>
<path fill-rule="evenodd" clip-rule="evenodd" d="M15.9055 30.268C16.2292 30.7994 16.0608 31.4925 15.5294 31.8161C15.3241 31.9412 15.1454 32.1054 15.0036 32.2995C14.8617 32.4936 14.7595 32.7138 14.7028 32.9474C14.646 33.181 14.6358 33.4235 14.6728 33.661C14.7097 33.8986 14.7931 34.1265 14.9182 34.3318C15.0432 34.5371 15.2075 34.7158 15.4016 34.8576C15.5957 34.9995 15.8158 35.1017 16.0494 35.1584C16.283 35.2152 16.5255 35.2254 16.7631 35.1884C17.0006 35.1515 17.2285 35.0681 17.4339 34.943C17.9652 34.6194 18.6583 34.7878 18.982 35.3192C19.3056 35.8505 19.1372 36.5436 18.6058 36.8673C18.1478 37.1462 17.6394 37.3322 17.1095 37.4147C16.5796 37.4971 16.0386 37.4744 15.5175 37.3478C14.9964 37.2212 14.5053 36.9932 14.0723 36.6768C13.6393 36.3604 13.2729 35.9618 12.9939 35.5038C12.715 35.0458 12.529 34.5373 12.4465 34.0074C12.3641 33.4775 12.3868 32.9366 12.5134 32.4154C12.64 31.8943 12.868 31.4033 13.1844 30.9703C13.5008 30.5373 13.8994 30.1708 14.3574 29.8919C14.8888 29.5682 15.5819 29.7366 15.9055 30.268Z" fill="url(#paint9_linear_2623_571)"/>
<path fill-rule="evenodd" clip-rule="evenodd" d="M48.6233 26.7712C48.2997 27.3025 48.4681 27.9957 48.9994 28.3193C49.499 28.6235 49.897 29.069 50.1433 29.5995C50.3896 30.13 50.4731 30.7216 50.3832 31.2995C50.2933 31.8774 50.034 32.4157 49.6382 32.8463C49.2423 33.2768 48.7277 33.5803 48.1594 33.7184C47.5548 33.8653 47.1838 34.4745 47.3307 35.0791C47.4775 35.6836 48.0867 36.0547 48.6913 35.9078C49.6927 35.6645 50.5994 35.1297 51.2968 34.3711C51.9942 33.6125 52.451 32.6641 52.6095 31.6459C52.7679 30.6277 52.6208 29.5853 52.1869 28.6507C51.7529 27.716 51.0515 26.9311 50.1714 26.395C49.6401 26.0714 48.9469 26.2398 48.6233 26.7712Z" fill="url(#paint10_linear_2623_571)"/>
<path fill-rule="evenodd" clip-rule="evenodd" d="M42.6417 18.0413C42.842 18.0165 43.0453 18.0351 43.2379 18.0959C43.4304 18.1566 43.6076 18.258 43.7575 18.3932C43.9074 18.5285 44.0265 18.6943 44.1066 18.8796C44.1868 19.0649 44.2262 19.2652 44.2221 19.4671C44.2097 20.0891 44.7038 20.6035 45.3258 20.616C45.9479 20.6285 46.4623 20.1343 46.4748 19.5123C46.4853 18.9875 46.3829 18.4666 46.1744 17.9849C45.966 17.5032 45.6564 17.0719 45.2667 16.7203C44.877 16.3687 44.4162 16.1051 43.9156 15.9472C43.4151 15.7893 42.8864 15.7409 42.3655 15.8052C41.748 15.8815 41.3093 16.4439 41.3855 17.0613C41.4618 17.6788 42.0242 18.1175 42.6417 18.0413Z" fill="url(#paint11_linear_2623_571)"/>
<path fill-rule="evenodd" clip-rule="evenodd" d="M45.4834 21.6359C45.9529 21.4412 46.4648 21.3707 46.9695 21.4315C47.4742 21.4922 47.9547 21.682 48.3647 21.9825C48.7747 22.2831 49.1003 22.6843 49.31 23.1473C49.5197 23.6104 49.6066 24.1197 49.5621 24.6261C49.5176 25.1325 49.3434 25.6189 49.0562 26.0383C48.7689 26.4577 48.3784 26.796 47.9223 27.0205C47.4662 27.2451 46.96 27.3482 46.4524 27.32C45.8312 27.2855 45.2997 27.7612 45.2652 28.3824C45.2307 29.0036 45.7063 29.5351 46.3275 29.5696C47.2218 29.6193 48.1138 29.4375 48.9174 29.042C49.721 28.6464 50.409 28.0503 50.9151 27.3114C51.4212 26.5724 51.7282 25.7154 51.8065 24.8232C51.8849 23.9309 51.7319 23.0336 51.3623 22.2177C50.9928 21.4018 50.4192 20.695 49.6968 20.1654C48.9745 19.6359 48.1278 19.3015 47.2386 19.1945C46.3493 19.0876 45.4475 19.2116 44.6202 19.5548C43.7928 19.8979 43.0679 20.4486 42.5155 21.1535C42.1317 21.6432 42.2175 22.3513 42.7072 22.7351C43.1969 23.1189 43.905 23.033 44.2888 22.5433C44.6024 22.1432 45.0138 21.8307 45.4834 21.6359Z" fill="url(#paint12_linear_2623_571)"/>
<path fill-rule="evenodd" clip-rule="evenodd" d="M42.2365 23.3913C42.5198 23.3563 42.8066 23.418 43.0505 23.5664C43.2944 23.7147 43.4811 23.9411 43.5802 24.2088C43.6794 24.4765 43.6853 24.7699 43.5969 25.0413C43.5086 25.3128 43.3312 25.5465 43.0934 25.7045C42.5753 26.0489 42.4345 26.7482 42.7789 27.2663C43.1234 27.7844 43.8226 27.9252 44.3407 27.5808C45.0011 27.1418 45.494 26.4927 45.7394 25.7386C45.9848 24.9846 45.9685 24.1697 45.693 23.4261C45.4175 22.6825 44.899 22.0537 44.2216 21.6415C43.5441 21.2294 42.7473 21.058 41.9603 21.1552C41.3428 21.2315 40.9041 21.7939 40.9803 22.4113C41.0566 23.0288 41.619 23.4676 42.2365 23.3913Z" fill="url(#paint13_linear_2623_571)"/>
<path fill-rule="evenodd" clip-rule="evenodd" d="M37.5607 26.1462C37.2371 26.6775 37.4055 27.3707 37.9369 27.6943C38.2579 27.8898 38.5314 28.1543 38.7376 28.4686C38.9438 28.7829 39.0776 29.1391 39.1291 29.5115C39.1807 29.8838 39.1488 30.263 39.0357 30.6215C38.9226 30.98 38.7312 31.3088 38.4754 31.5842C38.2195 31.8596 37.9057 32.0747 37.5564 32.2138C37.2072 32.3529 36.8314 32.4126 36.4563 32.3886C36.0812 32.3645 35.7161 32.2574 35.3875 32.0748C35.0589 31.8923 34.775 31.6389 34.5564 31.3331C34.1946 30.827 33.4909 30.71 32.9848 31.0719C32.4787 31.4337 32.3617 32.1373 32.7235 32.6434C33.1364 33.2211 33.6727 33.6996 34.2934 34.0444C34.9141 34.3892 35.6037 34.5916 36.3123 34.637C37.0208 34.6824 37.7307 34.5696 38.3903 34.3069C39.0499 34.0441 39.6428 33.6379 40.1261 33.1177C40.6093 32.5975 40.9708 31.9763 41.1844 31.2992C41.398 30.622 41.4583 29.9058 41.3609 29.2025C41.2635 28.4992 41.0109 27.8263 40.6214 27.2326C40.2319 26.639 39.7153 26.1394 39.1088 25.77C38.5775 25.4464 37.8844 25.6148 37.5607 26.1462Z" fill="#12A47F"/>
<path fill-rule="evenodd" clip-rule="evenodd" d="M33.2388 16.8284C32.6166 16.8284 32.1122 17.3327 32.1122 17.9549L32.1122 42.1102C32.1122 42.7323 32.6166 43.2367 33.2388 43.2367C33.8609 43.2367 34.3653 42.7323 34.3653 42.1102L34.3653 17.9549C34.3653 17.3327 33.8609 16.8284 33.2388 16.8284Z" fill="url(#paint14_linear_2623_571)"/>
<path fill-rule="evenodd" clip-rule="evenodd" d="M36.9475 14.6608C37.4574 14.6182 37.9692 14.7154 38.4279 14.9418C38.8867 15.1682 39.2752 15.5153 39.5515 15.9458C39.8279 16.3763 39.9818 16.874 39.9967 17.3854C40.0116 17.8968 39.8869 18.4026 39.636 18.8484C39.3852 19.2943 39.0176 19.6634 38.5727 19.9161L38.5634 19.9215L29.4342 25.2238C28.8962 25.5363 28.7133 26.2257 29.0258 26.7637C29.3383 27.3017 30.0277 27.4846 30.5657 27.1721L39.6906 21.8723C40.4891 21.4175 41.1489 20.7542 41.5996 19.9533C42.0512 19.1507 42.2756 18.2403 42.2488 17.3198C42.222 16.3993 41.945 15.5035 41.4475 14.7286C40.95 13.9537 40.2508 13.3289 39.425 12.9214C38.5992 12.5139 37.678 12.339 36.7603 12.4155C35.8426 12.492 34.9631 12.8171 34.2162 13.3557C33.4693 13.8944 32.8833 14.6264 32.521 15.473C32.1407 16.3616 32.1122 17.319 32.1122 18.0306C32.1122 18.6528 32.6166 19.1571 33.2387 19.1571C33.8609 19.1571 34.3653 18.6528 34.3653 18.0306C34.3653 17.334 34.409 16.7878 34.5924 16.3594C34.7936 15.889 35.1192 15.4824 35.5342 15.1831C35.9491 14.8839 36.4377 14.7033 36.9475 14.6608Z" fill="url(#paint15_linear_2623_571)"/>
<path fill-rule="evenodd" clip-rule="evenodd" d="M45.9204 32.8205C45.6315 33.3715 45.844 34.0524 46.3951 34.3413C46.7808 34.5435 47.0997 34.8532 47.3131 35.2328C47.5264 35.6125 47.6252 36.0459 47.5975 36.4805C47.5697 36.9151 47.4165 37.3324 47.1565 37.6818C46.8965 38.0312 46.5409 38.2978 46.1325 38.4492C45.5492 38.6656 45.2517 39.3139 45.4681 39.8972C45.6844 40.4805 46.3327 40.778 46.9161 40.5616C47.7327 40.2587 48.4441 39.7256 48.9641 39.0268C49.4841 38.328 49.7904 37.4935 49.8459 36.6242C49.9015 35.7549 49.7039 34.8882 49.2771 34.1289C48.8503 33.3696 48.2126 32.7502 47.4412 32.3458C46.8901 32.0569 46.2093 32.2695 45.9204 32.8205Z" fill="url(#paint16_linear_2623_571)"/>
<path fill-rule="evenodd" clip-rule="evenodd" d="M43.3847 38.3942C43.0611 38.9256 43.2295 39.6187 43.7608 39.9423C43.9346 40.0481 44.0858 40.1871 44.2058 40.3514C44.3258 40.5156 44.4123 40.7019 44.4603 40.8996C44.5083 41.0972 44.5169 41.3024 44.4857 41.5034C44.4544 41.7044 44.3838 41.8973 44.278 42.071C44.1722 42.2447 44.0332 42.3959 43.869 42.5159C43.7047 42.6359 43.5185 42.7224 43.3208 42.7704C43.1231 42.8185 42.918 42.8271 42.717 42.7958C42.516 42.7645 42.3231 42.694 42.1494 42.5882C41.618 42.2645 40.9249 42.4329 40.6012 42.9643C40.2776 43.4957 40.446 44.1888 40.9774 44.5124C41.4038 44.7721 41.8772 44.9453 42.3706 45.0221C42.8639 45.0989 43.3676 45.0777 43.8527 44.9598C44.3379 44.8419 44.7951 44.6296 45.1983 44.3351C45.6014 44.0405 45.9426 43.6694 46.2023 43.243C46.462 42.8166 46.6352 42.3432 46.7119 41.8498C46.7887 41.3564 46.7675 40.8528 46.6497 40.3676C46.5318 39.8824 46.3195 39.4252 46.0249 39.0221C45.7303 38.619 45.3592 38.2778 44.9328 38.0181C44.4015 37.6944 43.7083 37.8629 43.3847 38.3942Z" fill="url(#paint17_linear_2623_571)"/>
<path fill-rule="evenodd" clip-rule="evenodd" d="M36.9475 45.3392C37.4574 45.3818 37.9692 45.2846 38.4279 45.0582C38.8867 44.8318 39.2752 44.4847 39.5515 44.0542C39.8279 43.6237 39.9818 43.126 39.9967 42.6146C40.0116 42.1032 39.8869 41.5974 39.636 41.1516C39.3852 40.7057 39.0176 40.3366 38.5727 40.0839L38.5634 40.0785L29.4342 34.7762C28.8962 34.4637 28.7133 33.7743 29.0258 33.2363C29.3383 32.6983 30.0277 32.5154 30.5657 32.8279L39.6906 38.1277C40.4891 38.5825 41.1489 39.2458 41.5996 40.0467C42.0512 40.8493 42.2756 41.7597 42.2488 42.6802C42.222 43.6007 41.945 44.4965 41.4475 45.2714C40.95 46.0463 40.2508 46.6711 39.425 47.0786C38.5992 47.4861 37.678 47.661 36.7603 47.5845C35.8426 47.508 34.9631 47.1829 34.2162 46.6443C33.4693 46.1056 32.8833 45.3736 32.521 44.527C32.1407 43.6384 32.1122 42.681 32.1122 41.9694C32.1122 41.3472 32.6166 40.8429 33.2387 40.8429C33.8609 40.8429 34.3653 41.3472 34.3653 41.9694C34.3653 42.666 34.409 43.2122 34.5924 43.6406C34.7936 44.111 35.1192 44.5176 35.5342 44.8169C35.9491 45.1161 36.4377 45.2967 36.9475 45.3392Z" fill="url(#paint18_linear_2623_571)"/>
<path fill-rule="evenodd" clip-rule="evenodd" d="M44.0945 30.268C43.7708 30.7994 43.9392 31.4925 44.4706 31.8161C44.6759 31.9412 44.8546 32.1054 44.9964 32.2995C45.1382 32.4936 45.2405 32.7138 45.2972 32.9474C45.354 33.181 45.3642 33.4235 45.3272 33.661C45.2902 33.8986 45.2068 34.1265 45.0818 34.3318C44.9567 34.5371 44.7925 34.7158 44.5984 34.8576C44.4043 34.9995 44.1841 35.1017 43.9505 35.1584C43.7169 35.2152 43.4744 35.2254 43.2369 35.1884C42.9994 35.1515 42.7714 35.0681 42.5661 34.943C42.0347 34.6194 41.3416 34.7878 41.018 35.3192C40.6944 35.8505 40.8628 36.5436 41.3941 36.8673C41.8521 37.1462 42.3606 37.3322 42.8905 37.4147C43.4204 37.4971 43.9614 37.4744 44.4825 37.3478C45.0036 37.2212 45.4947 36.9932 45.9277 36.6768C46.3607 36.3604 46.7271 35.9618 47.006 35.5038C47.285 35.0458 47.471 34.5373 47.5535 34.0074C47.6359 33.4775 47.6132 32.9366 47.4866 32.4154C47.36 31.8943 47.132 31.4033 46.8156 30.9703C46.4992 30.5373 46.1006 30.1708 45.6426 29.8919C45.1112 29.5682 44.4181 29.7366 44.0945 30.268Z" fill="url(#paint19_linear_2623_571)"/>
<defs>
<filter id="filter0_d_2623_571" x="1.21429" y="2.21436" width="57.5714" height="57.5715" filterUnits="userSpaceOnUse" color-interpolation-filters="sRGB">
<feFlood flood-opacity="0" result="BackgroundImageFix"/>
<feColorMatrix in="SourceAlpha" type="matrix" values="0 0 0 0 0 0 0 0 0 0 0 0 0 0 0 0 0 0 127 0" result="hardAlpha"/>
<feOffset dy="1"/>
<feGaussianBlur stdDeviation="1"/>
<feComposite in2="hardAlpha" operator="out"/>
<feColorMatrix type="matrix" values="0 0 0 0 0.85248 0 0 0 0 0.899318 0 0 0 0 0.9 0 0 0 0.5 0"/>
<feBlend mode="normal" in2="BackgroundImageFix" result="effect1_dropShadow_2623_571"/>
<feBlend mode="normal" in="SourceGraphic" in2="effect1_dropShadow_2623_571" result="shape"/>
</filter>
<linearGradient id="paint0_linear_2623_571" x1="11.03" y1="35.5447" x2="8.43924" y2="26.5582" gradientUnits="userSpaceOnUse">
<stop stop-color="#00CED1"/>
<stop offset="0.83973" stop-color="#12A47F"/>
</linearGradient>
<linearGradient id="paint1_linear_2623_571" x1="18.677" y1="16.8501" x2="14.2542" y2="19.4388" gradientUnits="userSpaceOnUse">
<stop stop-color="#12A47F"/>
<stop offset="1" stop-color="#00CED1"/>
</linearGradient>
<linearGradient id="paint2_linear_2623_571" x1="15.5059" y1="20.6835" x2="9.21197" y2="24.3674" gradientUnits="userSpaceOnUse">
<stop stop-color="#12A47F"/>
<stop offset="1" stop-color="#00CED1"/>
</linearGradient>
<linearGradient id="paint3_linear_2623_571" x1="16.8589" y1="27.6708" x2="18.4655" y2="21.747" gradientUnits="userSpaceOnUse">
<stop stop-color="#12A47F"/>
<stop offset="1" stop-color="#00CED1"/>
</linearGradient>
<linearGradient id="paint4_linear_2623_571" x1="26.7612" y1="17.9549" x2="26.9021" y2="42.1102" gradientUnits="userSpaceOnUse">
<stop offset="0.0678706" stop-color="#00CED1"/>
<stop offset="0.198838" stop-color="#12A47F"/>
<stop offset="0.614894" stop-color="#12A47F"/>
<stop offset="0.812388" stop-color="#12A47F"/>
<stop offset="0.941499" stop-color="#00CED1"/>
</linearGradient>
<linearGradient id="paint5_linear_2623_571" x1="26.859" y1="18.7898" x2="28.2916" y2="24.9169" gradientUnits="userSpaceOnUse">
<stop stop-color="#00CED1"/>
<stop offset="1" stop-color="#12A47F"/>
</linearGradient>
<linearGradient id="paint6_linear_2623_571" x1="13.6919" y1="40.2045" x2="15.7484" y2="32.6222" gradientUnits="userSpaceOnUse">
<stop stop-color="#12A47F"/>
<stop offset="1" stop-color="#00CED1"/>
</linearGradient>
<linearGradient id="paint7_linear_2623_571" x1="18.6102" y1="43.8536" x2="13.4444" y2="40.0611" gradientUnits="userSpaceOnUse">
<stop stop-color="#12A47F"/>
<stop offset="1" stop-color="#00CED1"/>
</linearGradient>
<linearGradient id="paint8_linear_2623_571" x1="26.8841" y1="41.5343" x2="28.2916" y2="35.0831" gradientUnits="userSpaceOnUse">
<stop stop-color="#00CED1"/>
<stop offset="1" stop-color="#12A47F"/>
</linearGradient>
<linearGradient id="paint9_linear_2623_571" x1="15.6124" y1="36.8847" x2="17.4761" y2="30.0132" gradientUnits="userSpaceOnUse">
<stop stop-color="#12A47F"/>
<stop offset="1" stop-color="#00CED1"/>
</linearGradient>
<linearGradient id="paint10_linear_2623_571" x1="48.97" y1="35.5447" x2="51.5607" y2="26.5582" gradientUnits="userSpaceOnUse">
<stop stop-color="#00CED1"/>
<stop offset="0.83973" stop-color="#12A47F"/>
</linearGradient>
<linearGradient id="paint11_linear_2623_571" x1="41.323" y1="16.8501" x2="45.7457" y2="19.4388" gradientUnits="userSpaceOnUse">
<stop stop-color="#12A47F"/>
<stop offset="1" stop-color="#00CED1"/>
</linearGradient>
<linearGradient id="paint12_linear_2623_571" x1="44.4941" y1="20.6835" x2="50.788" y2="24.3674" gradientUnits="userSpaceOnUse">
<stop stop-color="#12A47F"/>
<stop offset="1" stop-color="#00CED1"/>
</linearGradient>
<linearGradient id="paint13_linear_2623_571" x1="43.1411" y1="27.6708" x2="41.5345" y2="21.747" gradientUnits="userSpaceOnUse">
<stop stop-color="#12A47F"/>
<stop offset="1" stop-color="#00CED1"/>
</linearGradient>
<linearGradient id="paint14_linear_2623_571" x1="33.2388" y1="17.9549" x2="33.0979" y2="42.1102" gradientUnits="userSpaceOnUse">
<stop offset="0.0678706" stop-color="#00CED1"/>
<stop offset="0.198838" stop-color="#12A47F"/>
<stop offset="0.614894" stop-color="#12A47F"/>
<stop offset="0.812388" stop-color="#12A47F"/>
<stop offset="0.941499" stop-color="#00CED1"/>
</linearGradient>
<linearGradient id="paint15_linear_2623_571" x1="33.1409" y1="18.7898" x2="31.7084" y2="24.9169" gradientUnits="userSpaceOnUse">
<stop stop-color="#00CED1"/>
<stop offset="1" stop-color="#12A47F"/>
</linearGradient>
<linearGradient id="paint16_linear_2623_571" x1="46.3081" y1="40.2045" x2="44.2516" y2="32.6222" gradientUnits="userSpaceOnUse">
<stop stop-color="#12A47F"/>
<stop offset="1" stop-color="#00CED1"/>
</linearGradient>
<linearGradient id="paint17_linear_2623_571" x1="41.3898" y1="43.8536" x2="46.5556" y2="40.0611" gradientUnits="userSpaceOnUse">
<stop stop-color="#12A47F"/>
<stop offset="1" stop-color="#00CED1"/>
</linearGradient>
<linearGradient id="paint18_linear_2623_571" x1="33.1409" y1="41.2102" x2="31.7084" y2="35.0831" gradientUnits="userSpaceOnUse">
<stop stop-color="#00CED1"/>
<stop offset="1" stop-color="#12A47F"/>
</linearGradient>
<linearGradient id="paint19_linear_2623_571" x1="44.3876" y1="36.8847" x2="42.5238" y2="30.0132" gradientUnits="userSpaceOnUse">
<stop stop-color="#12A47F"/>
<stop offset="1" stop-color="#00CED1"/>
</linearGradient>
</defs>
</svg>
